<svg width="265" height="210" viewBox="0 0 265 210" fill="none" xmlns="http://www.w3.org/2000/svg">
<rect x="0.531921" y="38.3298" width="264.255" height="137.872" rx="11.4894" fill="#1CBED0"/>
<rect x="0.999939" y="60.5307" width="231.095" height="154.063" rx="12.3251" transform="rotate(-15 0.999939 60.5307)" fill="#FFFAFA"/>
<rect x="12.4576" y="67.5905" width="211.837" height="15.4063" rx="1.54063" transform="rotate(-15 12.4576 67.5905)" fill="#5FE7F7"/>
<rect x="41.9647" y="177.713" width="211.837" height="15.4063" rx="1.54063" transform="rotate(-15 41.9647 177.713)" fill="#E3A0A0"/>
<rect x="23.9013" y="110.299" width="27.7314" height="6.16253" rx="3.08126" transform="rotate(-15 23.9013 110.299)" fill="#35D1E3"/>
<rect x="27.49" y="123.692" width="52.3815" height="6.16253" rx="3.08126" transform="rotate(-15 27.49 123.692)" fill="#35D1E3"/>
<rect x="31.0787" y="137.086" width="33.1236" height="6.16253" rx="3.08126" transform="rotate(-15 31.0787 137.086)" fill="#35D1E3"/>
<rect x="34.6674" y="150.479" width="67.0175" height="6.16253" rx="3.08126" transform="rotate(-15 34.6674 150.479)" fill="#35D1E3"/>
<rect x="38.2561" y="163.872" width="27.7314" height="6.16253" rx="3.08126" transform="rotate(-15 38.2561 163.872)" fill="#35D1E3"/>
<rect x="63.3369" y="99.7325" width="93.9786" height="6.16253" rx="3.08126" transform="rotate(-15 63.3369 99.7325)" fill="#35D1E3"/>
<rect x="18.752" y="92.0087" width="135" height="10" rx="2" transform="rotate(-15 18.752 92.0087)" fill="#35D1E3"/>
<rect x="90.3638" y="106.845" width="69.7136" height="6.16253" rx="3.08126" transform="rotate(-15 90.3638 106.845)" fill="#35D1E3"/>
<rect x="114.042" y="114.856" width="48.9151" height="6.16253" rx="3.08126" transform="rotate(-15 114.042 114.856)" fill="#35D1E3"/>
<rect x="75.7228" y="125.123" width="33.1236" height="6.16253" rx="3.08126" transform="rotate(-15 75.7228 125.123)" fill="#35D1E3"/>
<rect x="129.908" y="124.959" width="36.2049" height="6.16253" rx="3.08126" transform="rotate(-15 129.908 124.959)" fill="#35D1E3"/>
<rect x="106.842" y="131.14" width="16.1766" height="6.16253" rx="3.08126" transform="rotate(-15 106.842 131.14)" fill="#35D1E3"/>
<rect x="101.13" y="147.025" width="69.7136" height="6.16253" rx="3.08126" transform="rotate(-15 101.13 147.025)" fill="#35D1E3"/>
<rect x="177.926" y="95.825" width="38.5158" height="4.6219" rx="2.31095" transform="rotate(-15 177.926 95.825)" fill="#35D1E3"/>
<rect x="180.219" y="104.382" width="38.5158" height="4.6219" rx="2.31095" transform="rotate(-15 180.219 104.382)" fill="#35D1E3"/>
<rect x="162.149" y="49.293" width="44.5229" height="46.4486" rx="6.66253" transform="rotate(-15 162.149 49.293)" stroke="#5FE7F7"/>
</svg>
